<svg width="59" height="67" viewBox="0 0 59 67" fill="none" xmlns="http://www.w3.org/2000/svg">
<g filter="url(#filter0_f_42_43)">
<path d="M19.5994 39.2095C19.5994 41.0177 19.8694 42.869 20.4095 44.7633C20.9496 46.6146 21.6973 48.0999 22.6528 49.2193H32V56.0001H18.3531C13.451 51.9532 11 46.3563 11 39.2095C11 32.0627 13.6172 26.6596 18.8516 23.0001H32V29.7809H22.6528C20.6172 31.9766 19.5994 35.1195 19.5994 39.2095Z" fill="#CFA6F5" fill-opacity="0.85"/>
<path d="M32.5 22.5001V30.2814H22.875C21.0472 32.3486 20.0997 35.3007 20.0996 39.2091C20.0996 40.9661 20.3618 42.7705 20.8896 44.6232L21.0957 45.2814C21.5668 46.6818 22.1672 47.8234 22.8877 48.7189H32.5V56.5001H18.1738L18.0352 56.3859C13.0028 52.2314 10.5 46.4842 10.5 39.2091C10.5001 31.9219 13.1798 26.3552 18.5654 22.59L18.6943 22.5001H32.5Z" stroke="#361764"/>
</g>
<g filter="url(#filter1_d_42_43)">
<path d="M19.0267 39.683C19.0267 41.3116 19.2788 42.979 19.7829 44.6851C20.287 46.3525 20.985 47.6903 21.8768 48.6985H30.6015V54.8058H17.8634C13.2878 51.1608 11 46.1199 11 39.683C11 33.2461 13.4429 28.3796 18.3288 25.0836H30.6015V31.1909H21.8768C19.9768 33.1685 19.0267 35.9992 19.0267 39.683Z" fill="white"/>
<path d="M31.1016 24.5836V31.691H22.0986C20.4078 33.541 19.5264 36.1797 19.5264 39.6832C19.5264 41.2587 19.7705 42.8773 20.2617 44.5406L20.4531 45.1305C20.889 46.3807 21.4434 47.3992 22.1074 48.1989H31.1016V55.3063H17.6885L17.5518 55.1969C12.8442 51.4467 10.5001 46.2548 10.5 39.6832C10.5 33.0984 13.0111 28.0682 18.0488 24.6696L18.1758 24.5836H31.1016Z" stroke="white"/>
</g>
<g filter="url(#filter2_f_42_43)">
<path d="M39.4006 27.2094C39.4006 29.0176 39.1306 30.8689 38.5905 32.7632C38.0504 34.6145 37.3027 36.0998 36.3472 37.2192H27V44H40.6469C45.549 39.953 48 34.3562 48 27.2094C48 20.0626 45.3828 14.6595 40.1484 11H27V17.7808H36.3472C38.3828 19.9765 39.4006 23.1194 39.4006 27.2094Z" fill="#CFA6F5" fill-opacity="0.85"/>
<path d="M26.5 10.5V18.2812H36.125C37.9528 20.3485 38.9003 23.3005 38.9004 27.209C38.9004 28.9659 38.6382 30.7704 38.1104 32.623L37.9043 33.2812C37.4332 34.6817 36.8328 35.8232 36.1123 36.7188H26.5V44.5H40.8262L40.9648 44.3857C45.9972 40.2312 48.5 34.484 48.5 27.209C48.4999 19.9218 45.8202 14.3551 40.4346 10.5898L40.3057 10.5H26.5Z" stroke="#361764"/>
</g>
<path d="M27.8984 43.2223L27.8984 36.1149L36.9014 36.1149C38.5922 34.2649 39.4736 31.6262 39.4736 28.1227C39.4736 26.5472 39.2295 24.9286 38.7383 23.2653L38.5469 22.6754C38.111 21.4252 37.5566 20.4067 36.8926 19.6071L27.8984 19.6071L27.8984 12.4996L41.3115 12.4996L41.4482 12.609C46.1558 16.3592 48.4999 21.5511 48.5 28.1227C48.5 34.7075 45.9889 39.7377 40.9512 43.1364L40.8242 43.2223L27.8984 43.2223Z" fill="white" stroke="white"/>
<defs>
<filter id="filter0_f_42_43" x="0" y="12.0001" width="43" height="55" filterUnits="userSpaceOnUse" color-interpolation-filters="sRGB">
<feFlood flood-opacity="0" result="BackgroundImageFix"/>
<feBlend mode="normal" in="SourceGraphic" in2="BackgroundImageFix" result="shape"/>
<feGaussianBlur stdDeviation="5" result="effect1_foregroundBlur_42_43"/>
</filter>
<filter id="filter1_d_42_43" x="6" y="24.0836" width="29.6016" height="39.7222" filterUnits="userSpaceOnUse" color-interpolation-filters="sRGB">
<feFlood flood-opacity="0" result="BackgroundImageFix"/>
<feColorMatrix in="SourceAlpha" type="matrix" values="0 0 0 0 0 0 0 0 0 0 0 0 0 0 0 0 0 0 127 0" result="hardAlpha"/>
<feOffset dy="4"/>
<feGaussianBlur stdDeviation="2"/>
<feComposite in2="hardAlpha" operator="out"/>
<feColorMatrix type="matrix" values="0 0 0 0 0 0 0 0 0 0 0 0 0 0 0 0 0 0 0.25 0"/>
<feBlend mode="normal" in2="BackgroundImageFix" result="effect1_dropShadow_42_43"/>
<feBlend mode="normal" in="SourceGraphic" in2="effect1_dropShadow_42_43" result="shape"/>
</filter>
<filter id="filter2_f_42_43" x="16" y="0" width="43" height="55" filterUnits="userSpaceOnUse" color-interpolation-filters="sRGB">
<feFlood flood-opacity="0" result="BackgroundImageFix"/>
<feBlend mode="normal" in="SourceGraphic" in2="BackgroundImageFix" result="shape"/>
<feGaussianBlur stdDeviation="5" result="effect1_foregroundBlur_42_43"/>
</filter>
</defs>
</svg>
